<svg id="visual" viewBox="0 0 1600 900" width="1600" height="900" xmlns="http://www.w3.org/2000/svg" xmlns:xlink="http://www.w3.org/1999/xlink" version="1.1"><path d="M0 46L100 262L200 73L300 73L400 316L500 208L600 271L700 280L800 109L900 127L1000 64L1100 199L1200 109L1300 271L1400 37L1500 109L1600 226L1600 0L1500 0L1400 0L1300 0L1200 0L1100 0L1000 0L900 0L800 0L700 0L600 0L500 0L400 0L300 0L200 0L100 0L0 0Z" fill="#d7e1eb"></path><path d="M0 235L100 451L200 604L300 424L400 631L500 523L600 406L700 478L800 559L900 514L1000 415L1100 604L1200 478L1300 496L1400 280L1500 577L1600 388L1600 224L1500 107L1400 35L1300 269L1200 107L1100 197L1000 62L900 125L800 107L700 278L600 269L500 206L400 314L300 71L200 71L100 260L0 44Z" fill="#c9d7e2"></path><path d="M0 613L100 640L200 712L300 676L400 721L500 613L600 766L700 793L800 712L900 694L1000 640L1100 766L1200 712L1300 640L1400 604L1500 631L1600 703L1600 386L1500 575L1400 278L1300 494L1200 476L1100 602L1000 413L900 512L800 557L700 476L600 404L500 521L400 629L300 422L200 602L100 449L0 233Z" fill="#baced9"></path><path d="M0 766L100 712L200 766L300 847L400 865L500 793L600 820L700 883L800 811L900 856L1000 883L1100 865L1200 757L1300 847L1400 829L1500 766L1600 820L1600 701L1500 629L1400 602L1300 638L1200 710L1100 764L1000 638L900 692L800 710L700 791L600 764L500 611L400 719L300 674L200 710L100 638L0 611Z" fill="#abc5cf"></path><path d="M0 901L100 901L200 901L300 901L400 901L500 901L600 901L700 901L800 901L900 901L1000 901L1100 901L1200 901L1300 901L1400 901L1500 901L1600 901L1600 818L1500 764L1400 827L1300 845L1200 755L1100 863L1000 881L900 854L800 809L700 881L600 818L500 791L400 863L300 845L200 764L100 710L0 764Z" fill="#9cbcc4"></path></svg>